<svg xmlns="http://www.w3.org/2000/svg" width="160" height="97" viewBox="0 0 160 97">
  <g fill="none" fill-rule="evenodd" transform="translate(2 2)">
    <path fill="#0063B1" stroke="#FFF" stroke-width="3.2" d="M137.346712,28.2906929 C135.36774,15.0426215 124.307486,6.72257143 110.314286,6.72257143 C109.728171,6.72257143 109.150971,6.74692857 108.576,6.78014286 C103.6776,2.56192857 97.2726857,0 90.2571429,0 C86.7204,0 83.3396571,0.657642857 80.2285714,1.84007143 C77.1152571,0.657642857 73.7367429,0 70.2,0 C63.8151429,0 57.9473143,2.13014286 53.2494857,5.6885 C52.7057143,6.10035714 52.1686286,6.52107143 51.6560571,6.97278571 C50.8983429,6.87092857 50.1272571,6.81114286 49.3494857,6.77128571 C48.8725714,6.74692857 48.3978857,6.72257143 47.9142857,6.72257143 C34.8058286,6.72257143 24.0017143,15.6527857 22.4773714,27.1715 C9.77005714,29.0602857 0,40.5037143 0,54.343 C0,69.5042143 11.7222857,81.7957143 26.1857143,81.7957143 C29.0472,81.7957143 31.7972571,81.3063571 34.3757143,80.4184286 C37.6138286,83.452 41.5851429,85.6286429 45.9642857,86.6782143 C47.2323429,86.9837857 48.5316,87.1985714 49.8642857,87.3004286 C50.5105714,87.3513571 51.1568571,87.3978571 51.8142857,87.3978571 C53.8289143,87.3978571 55.7900571,87.1520714 57.6732,86.6981429 C62.7610286,90.6373571 69.2528571,93 76.3285714,93 C83.5714286,93 90.2014286,90.5222143 95.3405143,86.4147143 C96.6598286,86.9970714 98.0348571,87.4576429 99.45,87.8052857 C100.715829,88.1152857 102.017314,88.3256429 103.35,88.4319286 C103.994057,88.4828571 104.642571,88.5182857 105.3,88.5182857 C112.785771,88.5182857 119.536114,85.1503571 124.307486,79.7607857 C126.417943,80.352 128.635371,80.6752857 130.928571,80.6752857 C144.774686,80.6752857 156,69.1344286 156,54.9032143 C156,43.1475714 148.338171,33.2342143 137.868343,30.1408571 L137.346712,28.2906929 Z"/>
    <path fill="#FFF" d="M26.7410979 61.5802198C23.518546 61.5802198 20.8946588 58.9582418 20.8946588 55.7362637 20.8946588 52.5142857 23.518546 49.8923077 26.7410979 49.8923077 29.9636499 49.8923077 32.5897626 52.5142857 32.5897626 55.7362637 32.5897626 58.9582418 29.9636499 61.5802198 26.7410979 61.5802198M44.5675074 54.0527473L36.328635 54.0527473C35.5252226 49.4857143 31.537092 46 26.7410979 46 21.3709199 46 17 50.367033 17 55.7362637 17 61.1032967 21.3709199 65.4725275 26.7410979 65.4725275 31.3501484 65.4725275 35.2158754 62.2527473 36.2218101 57.9450549L44.5675074 57.9450549C45.4154303 57.9450549 46.1053412 58.6373626 46.1053412 59.4857143L46.1053412 86.3846154C47.3738872 86.6879121 48.671365 86.9010989 50 87L50 59.4857143C50 56.4901099 47.5630564 54.0527473 44.5675074 54.0527473M78.1502566 66.1248328C78.1502566 69.3927775 75.5588294 72.0521623 72.3712419 72.0521623 69.1858543 72.0521623 66.5922272 69.3927775 66.5922272 66.1248328 66.5922272 62.8568881 69.1858543 60.1975033 72.3712419 60.1975033 75.5588294 60.1975033 78.1502566 62.8568881 78.1502566 66.1248328M54.3720419 45.2242532L68.9240717 45.2242532C69.7622159 45.2242532 70.4463702 45.9242086 70.4463702 46.7846634L70.4463702 56.4502898C66.0576628 57.3664735 62.7424838 61.354436 62.7424838 66.1248328 62.7424838 71.5684351 67.0629958 76 72.3712419 76 77.679488 76 82 71.5684351 82 66.1248328 82 61.354436 78.684821 57.3664735 74.2961136 56.4502898L74.2961136 46.7846634C74.2961136 43.7463219 71.8872742 41.2764155 68.9240717 41.2764155L54.3720419 41.2764155C53.5338977 41.2764155 52.8497434 40.5764601 52.8497434 39.7137762L52.8497434 6C52.3129791 6.41462327 51.7806146 6.83816317 51.2746484 7.29068212 50.5288981 7.19037004 49.7677488 7.13018279 49 7.09005796L49 39.7137762C49 42.7521177 51.4088394 45.2242532 54.3720419 45.2242532M78.8125679 29.674256C75.5663723 29.674256 72.9232337 27.0364527 72.9232337 23.7950281 72.9232337 20.5536034 75.5663723 17.9158002 78.8125679 17.9158002 82.0587636 17.9158002 84.704144 20.5536034 84.704144 23.7950281 84.704144 27.0364527 82.0587636 29.674256 78.8125679 29.674256zM119.298098 46.1820844C119.298098 42.9406597 121.938995 40.3028565 125.187432 40.3028565 128.43587 40.3028565 131.076766 42.9406597 131.076766 46.1820844 131.076766 49.423509 128.43587 52.0613123 125.187432 52.0613123 121.938995 52.0613123 119.298098 49.423509 119.298098 46.1820844zM121.674457 63.7512251C124.694226 63.7512251 127.149049 61.3013625 127.149049 58.2854667L127.149049 55.7781164C131.623777 54.8693678 135 50.9115573 135 46.1820844 135 40.780447 130.599253 36.3870563 125.187432 36.3870563 119.775611 36.3870563 115.374864 40.780447 115.374864 46.1820844 115.374864 50.9115573 118.751087 54.8693678 123.225815 55.7781164L123.225815 58.2854667C123.225815 59.1411498 122.530842 59.8354249 121.674457 59.8354249L103.748641 59.8354249 103.748641 27.3017808C103.748641 24.2880961 101.293818 21.8382335 98.2740489 21.8382335L88.4278533 21.8382335C87.517663 17.3718776 83.5518342 14 78.8125679 14 73.4029891 14 69 18.3933907 69 23.7950281 69 29.1966655 73.4029891 33.5900562 78.8125679 33.5900562 83.5518342 33.5900562 87.517663 30.2203896 88.4278533 25.7540337L98.2740489 25.7540337C99.1304348 25.7540337 99.8254076 26.4483088 99.8254076 27.3017808L99.8254076 87.374268C101.101019 87.6838174 102.410258 87.8960798 103.748641 88L103.748641 63.7512251 121.674457 63.7512251z"/>
  </g>
</svg>
